<?xml version="1.0" encoding="utf-8"?>
<!-- Generator: Adobe Illustrator 16.0.3, SVG Export Plug-In . SVG Version: 6.00 Build 0)  -->
<!DOCTYPE svg PUBLIC "-//W3C//DTD SVG 1.1//EN" "http://www.w3.org/Graphics/SVG/1.1/DTD/svg11.dtd">
<svg version="1.1" id="_x30_" xmlns="http://www.w3.org/2000/svg" xmlns:xlink="http://www.w3.org/1999/xlink" x="0px" y="0px"
	 width="793.709px" height="439.408px" viewBox="1304.125 772.422 793.709 439.408"
	 enable-background="new 1304.125 772.422 793.709 439.408" xml:space="preserve">
<g id="CIRCLE">
	
		<path fill="none" stroke="#FF0000" stroke-width="0.0283" stroke-linecap="round" stroke-linejoin="round" stroke-miterlimit="10" d="
		M1416.53,1098.426c0-2.601,2.1-4.7,4.7-4.7s4.7,2.1,4.7,4.7c0,2.6-2.1,4.699-4.7,4.699
		C1418.729,1103.125,1416.53,1101.025,1416.53,1098.426L1416.53,1098.426z"/>
</g>
<g id="CIRCLE_1_">
	
		<path fill="none" stroke="#FF0000" stroke-width="0.0283" stroke-linecap="round" stroke-linejoin="round" stroke-miterlimit="10" d="
		M1416.53,1140.926c0-2.6,2.1-4.7,4.7-4.7s4.7,2.101,4.7,4.7s-2.1,4.7-4.7,4.7C1418.729,1145.626,1416.53,1143.525,1416.53,1140.926
		L1416.53,1140.926z"/>
</g>
<g id="CIRCLE_2_">
	
		<path fill="none" stroke="#FF0000" stroke-width="0.0283" stroke-linecap="round" stroke-linejoin="round" stroke-miterlimit="10" d="
		M1975.83,1098.426c0-2.601,2.1-4.7,4.7-4.7c2.6,0,4.7,2.1,4.7,4.7c0,2.6-2.101,4.699-4.7,4.699
		C1977.93,1103.125,1975.83,1101.025,1975.83,1098.426L1975.83,1098.426z"/>
</g>
<g id="CIRCLE_3_">
	
		<path fill="none" stroke="#FF0000" stroke-width="0.0283" stroke-linecap="round" stroke-linejoin="round" stroke-miterlimit="10" d="
		M1975.83,1140.926c0-2.6,2.1-4.7,4.7-4.7c2.6,0,4.7,2.101,4.7,4.7s-2.101,4.7-4.7,4.7
		C1977.93,1145.626,1975.83,1143.525,1975.83,1140.926L1975.83,1140.926z"/>
</g>
<g id="LINE">
	
		<line fill="none" stroke="#0000FF" stroke-width="0.0283" stroke-linecap="round" stroke-linejoin="round" stroke-miterlimit="10" x1="2097.83" y1="1211.826" x2="1304.129" y2="1211.826"/>
</g>
<g id="LINE_1_">
	
		<line fill="none" stroke="#0000FF" stroke-width="0.0283" stroke-linecap="round" stroke-linejoin="round" stroke-miterlimit="10" x1="1304.129" y1="1211.826" x2="1304.129" y2="1041.725"/>
</g>
<g id="LINE_2_">
	
		<line fill="none" stroke="#0000FF" stroke-width="0.0283" stroke-linecap="round" stroke-linejoin="round" stroke-miterlimit="10" x1="1389.129" y1="1041.725" x2="2012.731" y2="1041.725"/>
</g>
<g id="LINE_3_">
	
		<line fill="none" stroke="#0000FF" stroke-width="0.0283" stroke-linecap="round" stroke-linejoin="round" stroke-miterlimit="10" x1="2097.83" y1="1041.725" x2="2097.83" y2="1211.826"/>
</g>
<g id="LINE_5_">
	
		<line fill="none" stroke="#0000FF" stroke-width="0.0283" stroke-linecap="round" stroke-linejoin="round" stroke-miterlimit="10" x1="2012.731" y1="1041.725" x2="2012.731" y2="772.425"/>
</g>
<g id="LINE_6_">
	
		<line fill="none" stroke="#0000FF" stroke-width="0.0283" stroke-linecap="round" stroke-linejoin="round" stroke-miterlimit="10" x1="2012.731" y1="772.425" x2="2097.83" y2="772.425"/>
</g>
<g id="LINE_7_">
	
		<line fill="none" stroke="#0000FF" stroke-width="0.0283" stroke-linecap="round" stroke-linejoin="round" stroke-miterlimit="10" x1="2097.83" y1="772.425" x2="2097.83" y2="1041.725"/>
</g>
<g id="LINE_9_">
	
		<line fill="none" stroke="#0000FF" stroke-width="0.0283" stroke-linecap="round" stroke-linejoin="round" stroke-miterlimit="10" x1="1389.129" y1="1041.725" x2="1389.129" y2="772.425"/>
</g>
<g id="LINE_10_">
	
		<line fill="none" stroke="#0000FF" stroke-width="0.0283" stroke-linecap="round" stroke-linejoin="round" stroke-miterlimit="10" x1="1389.129" y1="772.425" x2="1304.129" y2="772.425"/>
</g>
<g id="LINE_11_">
	
		<line fill="none" stroke="#0000FF" stroke-width="0.0283" stroke-linecap="round" stroke-linejoin="round" stroke-miterlimit="10" x1="1304.129" y1="772.425" x2="1304.129" y2="1041.725"/>
</g>
<rect x="1555.21" y="772.448" fill="none" stroke="#0000FF" stroke-width="0.0283" stroke-linecap="round" stroke-linejoin="round" stroke-miterlimit="10" width="439.4" height="85"/>
<rect x="1556.232" y="907.825" fill="none" stroke="#0000FF" stroke-width="0.0283" stroke-linecap="round" stroke-linejoin="round" stroke-miterlimit="10" width="439.401" height="85"/>
<g>
	<g id="CIRCLE_5_">
		
			<path fill="none" stroke="#FF0000" stroke-width="0.0283" stroke-linecap="round" stroke-linejoin="round" stroke-miterlimit="10" d="
			M1432.429,879.125c0-2.6,2.1-4.7,4.7-4.7c2.6,0,4.7,2.1,4.7,4.7s-2.1,4.7-4.7,4.7
			C1434.629,883.825,1432.429,881.725,1432.429,879.125L1432.429,879.125z"/>
	</g>
	<g id="CIRCLE_4_">
		
			<path fill="none" stroke="#FF0000" stroke-width="0.0283" stroke-linecap="round" stroke-linejoin="round" stroke-miterlimit="10" d="
			M1432.429,921.625c0-2.6,2.1-4.7,4.7-4.7c2.6,0,4.7,2.1,4.7,4.7s-2.1,4.7-4.7,4.7
			C1434.629,926.325,1432.429,924.225,1432.429,921.625L1432.429,921.625z"/>
	</g>
	
		<rect x="1405.03" y="822.425" fill="none" stroke="#0000FF" stroke-width="0.0283" stroke-linecap="round" stroke-linejoin="round" stroke-miterlimit="10" width="62.5" height="170.1"/>
</g>
<g>
	<g id="CIRCLE_7_">
		
			<path fill="none" stroke="#FF0000" stroke-width="0.0283" stroke-linecap="round" stroke-linejoin="round" stroke-miterlimit="10" d="
			M1510.13,879.125c0-2.6,2.1-4.7,4.7-4.7c2.6,0,4.7,2.1,4.7,4.7s-2.1,4.7-4.7,4.7
			C1512.329,883.825,1510.13,881.725,1510.13,879.125L1510.13,879.125z"/>
	</g>
	<g id="CIRCLE_6_">
		
			<path fill="none" stroke="#FF0000" stroke-width="0.0283" stroke-linecap="round" stroke-linejoin="round" stroke-miterlimit="10" d="
			M1510.13,921.625c0-2.6,2.1-4.7,4.7-4.7c2.6,0,4.7,2.1,4.7,4.7s-2.1,4.7-4.7,4.7
			C1512.329,926.325,1510.13,924.225,1510.13,921.625L1510.13,921.625z"/>
	</g>
	
		<rect x="1482.729" y="822.425" fill="none" stroke="#0000FF" stroke-width="0.0283" stroke-linecap="round" stroke-linejoin="round" stroke-miterlimit="10" width="62.5" height="170.1"/>
</g>
<path id="XMLID_1_" fill="none" stroke="#000000" stroke-width="1.4173" stroke-miterlimit="10" d="M1331.129,839.325
	c-0.5-1.1-0.7-2.3-0.8-3.7c-0.1-1.4-0.1-2.8,0.1-4.2c0.101-1.4,0.2-2.7,0.4-3.9c0.1-1.2,0.2-2.2,0.1-2.9c-0.1-2.2-0.5-4.3-1.2-6.4
	c-0.7-2-1.3-4.1-1.8-6.3c-0.2-0.8-0.3-1.6-0.4-2.4c-0.1-0.8,0-1.6,0.1-2.4c0.1-0.8,0.4-1.5,0.8-2.2c0.4-0.7,1-1.3,1.7-1.8
	c1-0.7,2-1,3-1s1.9,0.3,2.8,0.8c0.8,0.5,1.6,1.1,2.2,1.9c0.6,0.8,1,1.6,1.2,2.5c0.2,1,0.3,2,0.2,3.1c-0.101,1.1-0.3,2.2-0.5,3.3
	c-0.2,1.1-0.5,2.2-0.8,3.2c-0.3,1.1-0.5,2.1-0.6,3.1c-0.2,1.3-0.4,2.6-0.6,4c-0.3,1.4-0.3,2.7-0.2,4c0.1,1.3,0.4,2,0.8,2.1
	c0.4,0.101,0.8-0.399,1.4-1.6c0.399-0.9,0.8-2,1.1-3.1s0.5-2.3,0.6-3.4c0.2-1.2,0.3-2.3,0.4-3.5s0.2-2.2,0.3-3.3
	c0.1-0.8,0.2-1.7,0.3-2.4c0.1-0.8,0.3-1.5,0.5-2.2c0.2-0.7,0.6-1.3,1.1-1.9c0.5-0.6,1.2-1.1,2.1-1.5s1.8-0.6,2.6-0.4
	c0.8,0.2,1.5,0.6,2,1.1c0.6,0.5,1,1.2,1.4,1.9c0.4,0.7,0.6,1.4,0.7,2c0,0.1,0.1,0.4,0.2,1s0.2,1.2,0.4,2c0.2,0.8,0.3,1.5,0.6,2.4
	c0.2,0.8,0.5,1.6,0.7,2.2c0.2,0.6,0.5,1.1,0.8,1.4s0.6,0.3,1,0.1c0.3-0.2,0.4-0.5,0.4-1s-0.1-0.9-0.2-1.5c-0.1-0.5-0.2-1-0.4-1.5
	c-0.1-0.5-0.2-0.8-0.3-1c-0.3-1.4-0.4-2.7-0.5-4.1c0-1.4,0.1-2.7,0.5-4c0.3-0.9,0.7-1.8,1.3-2.6c0.6-0.8,1.4-1.4,2.2-1.9
	c0.8-0.4,1.7-0.6,2.7-0.5c1,0.1,1.9,0.5,2.8,1.3c0.6,0.6,1.1,1.3,1.4,2.1c0.3,0.8,0.5,1.7,0.6,2.7c0.1,0.9,0,1.9-0.1,2.8
	s-0.3,1.7-0.5,2.3c-0.4,1.3-0.9,2.4-1.5,3.5c-0.6,1.101-1.1,2.201-1.6,3.2c-0.5,1.1-0.8,2.2-1.1,3.3c-0.3,1.1-0.3,2.4-0.2,3.7
	c0.1,0.8,0.2,1.6,0.4,2.4c0.2,0.8,0.4,1.6,0.5,2.4c0.1,0.8,0.2,1.6,0.2,2.4s-0.1,1.6-0.3,2.4c-0.2,0.8-0.7,1.5-1.3,2.2
	c-0.6,0.7-1.4,1.3-2.2,1.7s-1.7,0.6-2.6,0.6c-0.9,0-1.8-0.3-2.5-1c-0.7-0.6-1.3-1.5-1.7-2.6c-0.4-1.1-0.7-2.2-0.9-3.5
	c-0.2-1.2-0.4-2.4-0.5-3.6c-0.1-1.2-0.3-2.2-0.6-3.1c-0.1-0.4-0.3-0.8-0.5-1.3c-0.2-0.5-0.4-1-0.7-1.5s-0.6-1-0.9-1.4
	c-0.3-0.4-0.7-0.7-1.1-0.9c-0.3,0.1-0.6,0.3-0.9,0.7c-0.3,0.4-0.7,0.8-1,1.3c-0.3,0.5-0.6,0.9-0.8,1.4c-0.2,0.5-0.4,0.8-0.4,1
	c-0.2,0.6-0.3,1.2-0.3,1.8c-0.1,0.601-0.1,1.2-0.1,1.8s0,1.2,0,1.9c0,0.6-0.1,1.2-0.2,1.9c-0.1,0.5-0.2,1-0.3,1.6s-0.3,1.1-0.4,1.7
	c-0.1,0.6-0.3,1.1-0.6,1.6c-0.2,0.5-0.5,1-0.8,1.3c-0.6,0.6-1.4,1.1-2.3,1.2c-0.9,0.2-1.8,0.2-2.7,0c-0.9-0.2-1.7-0.5-2.5-1.1
	C1332.029,840.725,1331.429,840.125,1331.129,839.325z"/>
<path id="XMLID_2_" fill="none" stroke="#000000" stroke-width="1.4173" stroke-miterlimit="10" d="M2039.731,839.325
	c-0.5-1.1-0.7-2.3-0.801-3.7c-0.1-1.4-0.1-2.8,0.101-4.2c0.1-1.4,0.2-2.7,0.399-3.9c0.101-1.2,0.2-2.2,0.101-2.9
	c-0.101-2.2-0.5-4.3-1.2-6.4c-0.7-2-1.3-4.1-1.8-6.3c-0.2-0.8-0.3-1.6-0.4-2.4c-0.1-0.8,0-1.6,0.101-2.4c0.1-0.8,0.399-1.5,0.8-2.2
	c0.399-0.7,0.999-1.3,1.7-1.8c1-0.7,2-1,2.999-1c1,0,1.9,0.3,2.8,0.8c0.801,0.5,1.601,1.1,2.201,1.9c0.6,0.8,1,1.6,1.199,2.5
	c0.2,1,0.301,2,0.2,3.1s-0.3,2.2-0.5,3.3s-0.5,2.2-0.8,3.2c-0.301,1.1-0.5,2.1-0.6,3.1c-0.2,1.3-0.4,2.6-0.601,4
	c-0.3,1.4-0.3,2.7-0.2,4c0.101,1.3,0.4,2,0.801,2.1c0.399,0.101,0.799-0.399,1.399-1.6c0.4-0.9,0.8-2,1.101-3.1
	c0.299-1.1,0.5-2.3,0.6-3.4c0.199-1.2,0.3-2.3,0.4-3.5c0.1-1.2,0.199-2.2,0.299-3.3c0.101-0.8,0.201-1.7,0.301-2.4
	c0.1-0.8,0.3-1.5,0.5-2.2c0.199-0.7,0.6-1.3,1.1-1.9c0.5-0.6,1.2-1.1,2.101-1.5c0.899-0.4,1.8-0.6,2.6-0.4c0.8,0.2,1.5,0.6,2,1.1
	c0.6,0.5,1,1.2,1.399,1.9c0.4,0.7,0.601,1.4,0.701,2c0,0.1,0.1,0.4,0.199,1c0.101,0.6,0.2,1.2,0.4,2s0.3,1.5,0.6,2.4
	c0.2,0.8,0.5,1.6,0.7,2.2c0.3,0.6,0.5,1.1,0.8,1.4c0.301,0.3,0.6,0.3,1,0.1c0.301-0.2,0.4-0.5,0.4-1s-0.1-0.9-0.2-1.5
	c-0.1-0.5-0.2-1-0.399-1.5c-0.101-0.5-0.201-0.8-0.301-1c-0.3-1.4-0.4-2.7-0.5-4.1c0-1.4,0.1-2.7,0.5-4c0.301-0.9,0.7-1.8,1.301-2.6
	c0.6-0.8,1.399-1.4,2.199-1.9c0.8-0.4,1.7-0.6,2.7-0.5c0.9,0.1,1.9,0.5,2.8,1.3c0.601,0.6,1.1,1.3,1.4,2.1c0.3,0.8,0.5,1.7,0.6,2.7
	c0.1,0.9,0,1.9-0.1,2.8s-0.3,1.7-0.5,2.3c-0.4,1.3-0.9,2.4-1.5,3.5c-0.6,1.101-1.1,2.201-1.6,3.2c-0.5,1.1-0.801,2.2-1.101,3.3
	c-0.3,1.1-0.3,2.4-0.2,3.7c0.101,0.8,0.2,1.6,0.4,2.4c0.2,0.8,0.4,1.6,0.5,2.4c0.1,0.8,0.2,1.6,0.2,2.4s-0.101,1.6-0.3,2.4
	c-0.2,0.8-0.7,1.5-1.301,2.2c-0.6,0.7-1.4,1.3-2.199,1.7c-0.801,0.4-1.7,0.6-2.601,0.6c-0.899,0-1.8-0.3-2.5-1
	c-0.7-0.6-1.3-1.5-1.7-2.6c-0.4-1.1-0.699-2.2-0.899-3.5c-0.2-1.2-0.4-2.4-0.5-3.6c-0.101-1.2-0.3-2.2-0.601-3.1
	c-0.1-0.4-0.3-0.8-0.5-1.3c-0.199-0.5-0.399-1-0.699-1.5c-0.301-0.5-0.601-1-0.9-1.4s-0.7-0.7-1.1-0.9c-0.301,0.1-0.601,0.3-0.9,0.7
	c-0.3,0.4-0.7,0.8-1,1.3s-0.6,0.9-0.8,1.4c-0.2,0.4-0.4,0.8-0.4,1c-0.2,0.6-0.3,1.2-0.3,1.8c-0.1,0.601-0.1,1.2-0.1,1.8s0,1.2,0,1.9
	c0,0.6-0.101,1.2-0.201,1.9c-0.1,0.5-0.199,1-0.299,1.6c-0.101,0.6-0.301,1.1-0.4,1.7c-0.101,0.6-0.301,1.1-0.6,1.6
	c-0.201,0.5-0.5,1-0.801,1.3c-0.6,0.6-1.399,1.1-2.3,1.2c-0.899,0.1-1.8,0.2-2.7,0c-0.899-0.2-1.699-0.5-2.5-1.1
	C2040.63,840.725,2040.13,840.125,2039.731,839.325z"/>
</svg>
