<?xml version="1.0" encoding="utf-8"?>
<!-- Generator: Adobe Illustrator 24.0.2, SVG Export Plug-In . SVG Version: 6.00 Build 0)  -->
<svg version="1.1" id="_x30_" xmlns="http://www.w3.org/2000/svg" xmlns:xlink="http://www.w3.org/1999/xlink" x="0px" y="0px"
	 viewBox="0 0 845.2 509" style="enable-background:new 0 0 845.2 509;" xml:space="preserve">
<style type="text/css">
	.st0{fill:none;stroke:#FF0000;stroke-width:1.000000e-03;stroke-linecap:round;stroke-linejoin:round;stroke-miterlimit:10;}
	.st1{fill:none;stroke:#0000FF;stroke-width:1.000000e-03;stroke-linecap:round;stroke-linejoin:round;stroke-miterlimit:10;}
	.st2{fill:none;stroke:#00FF00;stroke-width:1.000000e-03;stroke-miterlimit:10;}
</style>
<g id="CIRCLE">
	<path class="st0" d="M138.2,360.8c0-2.6,2.1-4.7,4.7-4.7c2.6,0,4.7,2.1,4.7,4.7c0,2.6-2.1,4.7-4.7,4.7
		C140.4,365.5,138.2,363.4,138.2,360.8L138.2,360.8z"/>
</g>
<g id="CIRCLE_1_">
	<path class="st0" d="M138.2,403.3c0-2.6,2.1-4.7,4.7-4.7c2.6,0,4.7,2.1,4.7,4.7s-2.1,4.7-4.7,4.7
		C140.4,408,138.2,405.9,138.2,403.3L138.2,403.3z"/>
</g>
<g id="CIRCLE_2_">
	<path class="st0" d="M697.5,360.8c0-2.6,2.1-4.7,4.7-4.7c2.6,0,4.7,2.1,4.7,4.7c0,2.6-2.1,4.7-4.7,4.7
		C699.6,365.5,697.5,363.4,697.5,360.8L697.5,360.8z"/>
</g>
<g id="CIRCLE_3_">
	<path class="st0" d="M697.5,403.3c0-2.6,2.1-4.7,4.7-4.7c2.6,0,4.7,2.1,4.7,4.7s-2.1,4.7-4.7,4.7
		C699.6,408,697.5,405.9,697.5,403.3L697.5,403.3z"/>
</g>
<g id="LINE">
	<line class="st1" x1="819.5" y1="474.2" x2="25.8" y2="474.2"/>
</g>
<g id="LINE_1_">
	<line class="st1" x1="25.8" y1="474.2" x2="25.8" y2="304.1"/>
</g>
<g id="LINE_2_">
	<line class="st1" x1="110.8" y1="304.1" x2="734.4" y2="304.1"/>
</g>
<g id="LINE_3_">
	<line class="st1" x1="819.5" y1="304.1" x2="819.5" y2="474.2"/>
</g>
<g id="LINE_5_">
	<line class="st1" x1="734.4" y1="304.1" x2="734.4" y2="34.8"/>
</g>
<g id="LINE_6_">
	<line class="st1" x1="734.4" y1="34.8" x2="819.5" y2="34.8"/>
</g>
<g id="LINE_7_">
	<line class="st1" x1="819.5" y1="34.8" x2="819.5" y2="304.1"/>
</g>
<g id="LINE_9_">
	<line class="st1" x1="110.8" y1="304.1" x2="110.8" y2="34.8"/>
</g>
<g id="LINE_10_">
	<line class="st1" x1="110.8" y1="34.8" x2="25.8" y2="34.8"/>
</g>
<g id="LINE_11_">
	<line class="st1" x1="25.8" y1="34.8" x2="25.8" y2="304.1"/>
</g>
<rect x="454.1" y="-142.4" transform="matrix(6.123234e-17 -1 1 6.123234e-17 419.2805 573.9227)" class="st1" width="85" height="439.4"/>
<rect x="455.1" y="-7" transform="matrix(6.123234e-17 -1 1 6.123234e-17 284.9026 710.3006)" class="st1" width="85" height="439.4"/>
<g>
	<g id="CIRCLE_5_">
		<path class="st0" d="M154.1,141.5c0-2.6,2.1-4.7,4.7-4.7c2.6,0,4.7,2.1,4.7,4.7c0,2.6-2.1,4.7-4.7,4.7
			C156.3,146.2,154.1,144.1,154.1,141.5L154.1,141.5z"/>
	</g>
	<g id="CIRCLE_4_">
		<path class="st0" d="M154.1,184c0-2.6,2.1-4.7,4.7-4.7c2.6,0,4.7,2.1,4.7,4.7c0,2.6-2.1,4.7-4.7,4.7
			C156.3,188.7,154.1,186.6,154.1,184L154.1,184z"/>
	</g>
	<rect x="126.7" y="84.8" class="st1" width="62.5" height="170.1"/>
</g>
<g>
	<g id="CIRCLE_7_">
		<path class="st0" d="M231.8,141.5c0-2.6,2.1-4.7,4.7-4.7c2.6,0,4.7,2.1,4.7,4.7c0,2.6-2.1,4.7-4.7,4.7
			C234,146.2,231.8,144.1,231.8,141.5L231.8,141.5z"/>
	</g>
	<g id="CIRCLE_6_">
		<path class="st0" d="M231.8,184c0-2.6,2.1-4.7,4.7-4.7c2.6,0,4.7,2.1,4.7,4.7c0,2.6-2.1,4.7-4.7,4.7
			C234,188.7,231.8,186.6,231.8,184L231.8,184z"/>
	</g>
	<rect x="204.4" y="84.8" class="st1" width="62.5" height="170.1"/>
</g>
<g id="XMLID_7732_">
	<g id="XMLID_7735_">
		<path id="XMLID_7746_" class="st2" d="M308.1,424.9c-1.2-2.7-1.9-5.8-2-9.3c-0.2-3.5-0.1-6.9,0.1-10.3c0.2-3.4,0.6-6.6,0.9-9.6
			c0.4-3,0.4-5.4,0.2-7.2c-0.4-5.5-1.3-10.7-3-15.8c-1.6-5-3.2-10.2-4.5-15.5c-0.5-2-0.8-4-1-6.1c-0.2-2-0.1-4,0.2-5.9
			c0.4-1.9,1-3.7,2-5.4c1-1.7,2.4-3.2,4.2-4.4c2.5-1.7,4.9-2.5,7.3-2.4c2.5,0.1,4.7,0.7,6.8,1.9c2.1,1.2,3.9,2.8,5.4,4.7
			c1.5,2,2.5,4.1,3,6.2c0.6,2.5,0.7,5,0.5,7.7c-0.3,2.7-0.7,5.4-1.3,8.1c-0.6,2.7-1.2,5.4-2,8c-0.7,2.7-1.2,5.2-1.6,7.6
			c-0.4,3.2-0.9,6.5-1.6,10c-0.6,3.5-0.8,6.8-0.6,10c0.4,3.2,1,4.9,1.9,5.3c0.9,0.3,2.1-1,3.4-4c1.1-2.3,2-4.9,2.7-7.7
			c0.7-2.8,1.2-5.6,1.6-8.5s0.7-5.8,0.9-8.7c0.2-2.9,0.5-5.6,0.8-8.1c0.2-2.1,0.5-4.1,0.8-6c0.2-1.9,0.7-3.7,1.3-5.4
			s1.5-3.2,2.7-4.6s2.9-2.6,5.2-3.7c2.3-1.1,4.5-1.4,6.4-0.9c1.9,0.5,3.6,1.4,5,2.7c1.4,1.3,2.5,2.9,3.4,4.7c0.9,1.8,1.4,3.5,1.7,5
			c0,0.2,0.1,1.1,0.4,2.5c0.2,1.4,0.6,3,0.9,4.9s0.8,3.8,1.4,5.9c0.6,2.1,1.1,3.9,1.8,5.4c0.6,1.5,1.3,2.7,2.1,3.4
			c0.8,0.8,1.5,0.8,2.4,0.1c0.7-0.5,1-1.3,1-2.5c0-1.1-0.1-2.3-0.4-3.6c-0.2-1.3-0.6-2.6-0.9-3.7c-0.4-1.2-0.6-2-0.6-2.5
			c-0.7-3.4-1.1-6.7-1.1-10.1c-0.1-3.4,0.4-6.7,1.3-10c0.7-2.3,1.8-4.6,3.3-6.6c1.5-2,3.4-3.5,5.4-4.6c2.1-1.1,4.3-1.5,6.6-1.3
			c2.3,0.2,4.6,1.3,6.8,3.3c1.5,1.4,2.7,3.2,3.5,5.3c0.8,2.1,1.3,4.3,1.4,6.6c0.2,2.3,0.1,4.6-0.2,6.9c-0.3,2.3-0.7,4.2-1.3,5.8
			c-1.1,3.1-2.3,6-3.8,8.7c-1.4,2.7-2.7,5.4-3.9,8c-1.1,2.7-2,5.4-2.7,8.2s-0.8,5.9-0.4,9.3c0.2,1.9,0.6,3.9,1.1,5.9
			c0.5,2,0.9,4,1.2,6c0.4,2,0.5,4,0.6,5.9c0,2-0.2,3.9-0.8,5.9c-0.6,1.9-1.7,3.8-3.3,5.6c-1.6,1.8-3.4,3.2-5.5,4.2s-4.2,1.5-6.5,1.5
			s-4.3-0.8-6.2-2.5c-1.9-1.6-3.2-3.8-4.2-6.4c-0.9-2.7-1.6-5.6-2.1-8.6c-0.5-3-0.9-6-1.3-9s-0.8-5.5-1.5-7.7
			c-0.4-0.9-0.7-2-1.2-3.3c-0.5-1.3-1-2.5-1.7-3.8c-0.7-1.3-1.4-2.4-2.3-3.4c-0.8-1-1.8-1.7-2.8-2.1c-0.7,0.2-1.4,0.7-2.3,1.7
			c-0.8,1-1.6,2-2.4,3.2c-0.8,1.2-1.4,2.3-2,3.4s-0.9,1.9-1.1,2.4c-0.4,1.5-0.7,3-0.8,4.6c-0.1,1.5-0.2,3-0.2,4.6s0,3-0.1,4.6
			c0,1.5-0.2,3.1-0.6,4.6c-0.2,1.2-0.5,2.5-0.8,3.9s-0.6,2.8-1,4.2c-0.4,1.4-0.8,2.7-1.4,4c-0.6,1.3-1.2,2.4-2.1,3.2
			c-1.5,1.6-3.4,2.6-5.7,3.1c-2.3,0.5-4.5,0.5-6.8,0c-2.2-0.5-4.3-1.3-6.2-2.7C310.3,428.5,308.9,426.9,308.1,424.9z"/>
		<path id="XMLID_7743_" class="st2" d="M392.4,414.3c-0.9-0.8-1.5-1.3-1.6-1.4c-0.1-0.1,0,0,0.3,0.2s0.6,0.5,0.9,0.8
			C392.4,414.3,392.5,414.4,392.4,414.3c-2.2-2-3.9-4.4-5.2-7.2c-1.3-2.8-2.1-5.8-2.5-8.9s-0.3-6.1,0.3-9.2s1.6-5.8,3.2-8.2
			c1.5-2.3,3.3-4.2,5.4-5.6c2.1-1.4,4.3-2.3,6.7-2.7c2.4-0.4,4.8-0.2,7.2,0.6s4.7,2.1,6.7,4c1.9,1.8,3.5,4,4.7,6.6
			c1.2,2.5,2.1,5.2,2.5,8c0.5,2.8,0.5,5.6,0.2,8.5c-0.3,2.8-1.1,5.4-2.2,7.7c-1.2,2.6-2.9,4.7-5,6.4s-4.5,2.8-7,3.4
			c-2.6,0.6-5.2,0.7-7.8,0.2C397.1,417.3,394.7,416.1,392.4,414.3z M397.3,389.1c-0.3,0.7-0.4,1-0.4,0.9c0-0.1,0.1-0.3,0.2-0.6
			s0.2-0.6,0.3-0.8S397.5,388.6,397.3,389.1c-0.5,1.2-0.9,2.6-1.1,4c-0.2,1.4-0.2,2.9-0.1,4.3c0.1,1.4,0.5,2.8,1.1,4.1
			c0.6,1.3,1.4,2.5,2.5,3.4c1.1,1.1,2.2,1.6,3.3,1.6c1.1,0,2.1-0.2,3.1-0.8s1.8-1.4,2.5-2.5c0.7-1.1,1.2-2.2,1.5-3.3
			c0.6-2.3,0.7-4.7,0.3-7.2s-1.4-4.7-3-6.5c-0.9-1-1.9-1.6-2.9-1.9c-1-0.2-1.9-0.2-2.8,0.2s-1.7,0.9-2.5,1.8
			C398.4,387.1,397.7,388.1,397.3,389.1z"/>
		<path id="XMLID_7740_" class="st2" d="M430.6,414.3c-0.9-0.8-1.5-1.3-1.6-1.4c-0.1-0.1,0,0,0.3,0.2s0.6,0.5,0.9,0.8
			C430.7,414.3,430.8,414.4,430.6,414.3c-2.2-2-3.9-4.4-5.2-7.2c-1.3-2.8-2.1-5.8-2.5-8.9c-0.4-3.1-0.3-6.1,0.3-9.2
			c0.6-3.1,1.6-5.8,3.2-8.2c1.5-2.3,3.3-4.2,5.4-5.6c2.1-1.4,4.3-2.3,6.7-2.7c2.4-0.4,4.8-0.2,7.2,0.6s4.7,2.1,6.7,4
			c1.9,1.8,3.5,4,4.7,6.6c1.2,2.5,2.1,5.2,2.5,8c0.5,2.8,0.5,5.6,0.2,8.5c-0.3,2.8-1.1,5.4-2.2,7.7c-1.2,2.6-2.9,4.7-5,6.4
			c-2.1,1.7-4.5,2.8-7,3.4c-2.6,0.6-5.2,0.7-7.8,0.2C435.4,417.3,432.9,416.1,430.6,414.3z M435.5,389.1c-0.3,0.7-0.4,1-0.4,0.9
			c0-0.1,0.1-0.3,0.2-0.6c0.1-0.3,0.2-0.6,0.3-0.8C435.8,388.5,435.8,388.6,435.5,389.1c-0.5,1.2-0.9,2.6-1.1,4
			c-0.2,1.4-0.2,2.9-0.1,4.3c0.1,1.4,0.5,2.8,1.1,4.1c0.6,1.3,1.4,2.5,2.5,3.4c1.1,1.1,2.2,1.6,3.3,1.6c1.1,0,2.1-0.2,3.1-0.8
			s1.8-1.4,2.5-2.5c0.7-1.1,1.2-2.2,1.5-3.3c0.6-2.3,0.7-4.7,0.3-7.2c-0.4-2.5-1.4-4.7-3-6.5c-0.9-1-1.9-1.6-2.9-1.9
			c-1-0.2-1.9-0.2-2.8,0.2s-1.7,0.9-2.5,1.8C436.6,387.1,436,388.1,435.5,389.1z"/>
		<path id="XMLID_7737_" class="st2" d="M503.3,389.5c0.9,4.7,1.1,9.1,0.5,13.4c-0.5,4.3-1.5,8.1-3,11.5s-3.2,6.1-5.4,8.3
			c-2.1,2.2-4.4,3.5-6.7,4c-2.9,0.6-5.7,0.4-8.5-0.7c-2.8-1.1-5.3-2.4-7.5-4c-0.3,1.3-0.8,2.5-1.5,3.6c-0.7,1.1-1.5,1.9-2.5,2.5
			c-1,0.6-2.1,0.9-3.3,1c-1.2,0-2.5-0.3-3.8-1c-0.9-0.5-1.6-1.2-2-2c-0.4-0.8-0.7-1.8-0.7-2.7c-0.1-1-0.1-2,0.1-2.9
			c0.2-1,0.4-1.9,0.5-2.8c0.7-2.9,1.3-5.9,1.9-9c0.6-3.2,0.9-6.3,1.1-9.5c0.2-3.2,0.1-6.4-0.2-9.5c-0.3-3.1-1-6.1-2-8.9
			c-0.5-1.6-1.2-3-1.9-4.3c-0.7-1.3-1.4-2.7-2-4c-0.6-1.3-1.2-2.7-1.6-4.1c-0.5-1.4-0.7-3-0.7-4.8c0-1.2,0-2.5,0.2-3.7
			c0.2-1.3,0.5-2.4,1-3.5c0.5-1.1,1.2-2,2-2.8s2-1.4,3.4-1.9c1.7-0.4,3.2-0.2,4.6,0.7c1.3,0.9,2.5,2.2,3.4,4
			c0.9,1.7,1.7,3.7,2.3,5.9c0.6,2.2,1.1,4.4,1.5,6.6c0.4,2.2,0.6,4.3,0.8,6.2c0.2,1.9,0.3,3.4,0.3,4.4c1.1-1.8,2.3-3.5,3.9-5
			c1.5-1.6,3.2-2.8,4.9-3.7c1.8-0.9,3.6-1.3,5.6-1.3c2,0,4,0.8,6.1,2.2c1.4,1.1,2.6,2.2,3.6,3.6s1.9,2.9,2.6,4.5
			c0.7,1.6,1.3,3.2,1.8,4.9C502.6,386.3,503,387.9,503.3,389.5z M481.8,411.6c1.3-0.5,2.5-1.6,3.5-3.2c1-1.6,1.8-3.5,2.5-5.6
			c0.6-2.1,1-4.4,1.2-6.7c0.2-2.3,0.1-4.4-0.2-6.3s-0.9-3.3-1.8-4.5c-0.8-1.1-2-1.5-3.5-1.3c-1.9,0.4-3.4,1.4-4.6,3
			s-2.1,3.5-2.6,5.7c-0.6,2.2-0.9,4.5-0.9,7c0,2.5,0.2,4.6,0.7,6.5c0.5,1.9,1.2,3.4,2.2,4.5C479.3,411.7,480.4,412,481.8,411.6z"/>
		<path id="XMLID_7736_" class="st2" d="M554,382.7c-0.7,1.7-1.5,3.2-2.6,4.6c-1.9,2-3.6,4.1-5.3,6.2c-5.5,6.1-10,12.8-14.5,19.6
			c-1.5,2.3-3,4.6-4.6,6.8c-10.9,17.3-27.1,29.4-45.4,34.6c-2,0.6-4,1.1-6,1.5c-4,0.9-8,1.7-12.1,2.2c-2.6,0.4-5.3,0.7-7.9,0.9
			c-18.5,1.4-37.5-2-54.4-8.2c-2.5-0.9-4.9-1.9-7.4-2.9c-1.5-0.9-3-2.1-4.2-3.4c-3.8-3.9-6-9.1-5.6-14.8c0-1.6,1.6-3.2,3.2-4
			c3.6-0.4,6.7,0.6,9.5,2.1c2,1.6,4.1,3.2,6.3,4.7c15,12.2,35.8,19.8,55.5,17.5c2.8-0.3,5.6-0.9,8.5-1.6c5.6-0.9,10.8-2.7,15.5-5
			c1.6-0.8,3.1-1.6,4.6-2.6c4.6-3,9.4-7.1,13.1-11.8c1.1-1.6,2.2-3.3,3.2-4.9c3-4.9,5.5-9.9,6.1-15.1c0.5-2.5,0.8-4.9,0.9-7.5
			c0.4-7.6-1.1-15.6-4.6-23.4c0.1-1.5,0.5-2.9,1.3-4.2c0.7-1.3,1.9-2.2,3.6-3c3.5-1.5,6.4-0.7,8.6,2.3c1.7,2.3,3.2,6,4.7,11.1
			c0.5,1.7,0.9,3.6,1.4,5.6c1.4,2.8-0.2,6.1,1.3,8.4c0.8-1.6,1.7-4,2.4-5.6c1.1-2.5,2.3-4.9,3.7-7.4c1.4-2.5,2.8-4.7,4.3-6.7
			c1.5-2,3.2-3.5,4.9-4.8c1.8-1.2,3.6-1.8,5.5-1.6c2.5,0.1,4.2,0.7,5.3,1.8c1.1,1.1,1.7,2.3,1.8,3.8
			C555,379.5,554.7,381.1,554,382.7z"/>
	</g>
</g>
<path id="XMLID_1_" class="st2" d="M52.8,101.7c-0.5-1.1-0.7-2.3-0.8-3.7c-0.1-1.4-0.1-2.8,0.1-4.2c0.1-1.4,0.2-2.7,0.4-3.9
	c0.1-1.2,0.2-2.2,0.1-2.9c-0.1-2.2-0.5-4.3-1.2-6.4c-0.7-2-1.3-4.1-1.8-6.3c-0.2-0.8-0.3-1.6-0.4-2.4c-0.1-0.8,0-1.6,0.1-2.4
	c0.1-0.8,0.4-1.5,0.8-2.2c0.4-0.7,1-1.3,1.7-1.8c1-0.7,2-1,3-1c1,0,1.9,0.3,2.8,0.8c0.8,0.5,1.6,1.1,2.2,1.9c0.6,0.8,1,1.6,1.2,2.5
	c0.2,1,0.3,2,0.2,3.1c-0.1,1.1-0.3,2.2-0.5,3.3s-0.5,2.2-0.8,3.2c-0.3,1.1-0.5,2.1-0.6,3.1c-0.2,1.3-0.4,2.6-0.6,4
	c-0.3,1.4-0.3,2.7-0.2,4c0.1,1.3,0.4,2,0.8,2.1c0.4,0.1,0.8-0.4,1.4-1.6c0.4-0.9,0.8-2,1.1-3.1c0.3-1.1,0.5-2.3,0.6-3.4
	c0.2-1.2,0.3-2.3,0.4-3.5c0.1-1.2,0.2-2.2,0.3-3.3c0.1-0.8,0.2-1.7,0.3-2.4c0.1-0.8,0.3-1.5,0.5-2.2c0.2-0.7,0.6-1.3,1.1-1.9
	c0.5-0.6,1.2-1.1,2.1-1.5c0.9-0.4,1.8-0.6,2.6-0.4c0.8,0.2,1.5,0.6,2,1.1c0.6,0.5,1,1.2,1.4,1.9c0.4,0.7,0.6,1.4,0.7,2
	c0,0.1,0.1,0.4,0.2,1c0.1,0.6,0.2,1.2,0.4,2s0.3,1.5,0.6,2.4c0.2,0.8,0.5,1.6,0.7,2.2s0.5,1.1,0.8,1.4c0.3,0.3,0.6,0.3,1,0.1
	c0.3-0.2,0.4-0.5,0.4-1c0-0.5-0.1-0.9-0.2-1.5c-0.1-0.5-0.2-1-0.4-1.5c-0.1-0.5-0.2-0.8-0.3-1c-0.3-1.4-0.4-2.7-0.5-4.1
	c0-1.4,0.1-2.7,0.5-4c0.3-0.9,0.7-1.8,1.3-2.6c0.6-0.8,1.4-1.4,2.2-1.9c0.8-0.4,1.7-0.6,2.7-0.5s1.9,0.5,2.8,1.3
	c0.6,0.6,1.1,1.3,1.4,2.1c0.3,0.8,0.5,1.7,0.6,2.7c0.1,0.9,0,1.9-0.1,2.8c-0.1,0.9-0.3,1.7-0.5,2.3c-0.4,1.3-0.9,2.4-1.5,3.5
	c-0.6,1.1-1.1,2.2-1.6,3.2c-0.5,1.1-0.8,2.2-1.1,3.3c-0.3,1.1-0.3,2.4-0.2,3.7c0.1,0.8,0.2,1.6,0.4,2.4c0.2,0.8,0.4,1.6,0.5,2.4
	c0.1,0.8,0.2,1.6,0.2,2.4c0,0.8-0.1,1.6-0.3,2.4c-0.2,0.8-0.7,1.5-1.3,2.2c-0.6,0.7-1.4,1.3-2.2,1.7c-0.8,0.4-1.7,0.6-2.6,0.6
	s-1.8-0.3-2.5-1c-0.7-0.6-1.3-1.5-1.7-2.6c-0.4-1.1-0.7-2.2-0.9-3.5c-0.2-1.2-0.4-2.4-0.5-3.6c-0.1-1.2-0.3-2.2-0.6-3.1
	c-0.1-0.4-0.3-0.8-0.5-1.3s-0.4-1-0.7-1.5c-0.3-0.5-0.6-1-0.9-1.4c-0.3-0.4-0.7-0.7-1.1-0.9c-0.3,0.1-0.6,0.3-0.9,0.7
	s-0.7,0.8-1,1.3c-0.3,0.5-0.6,0.9-0.8,1.4s-0.4,0.8-0.4,1c-0.2,0.6-0.3,1.2-0.3,1.8c-0.1,0.6-0.1,1.2-0.1,1.8c0,0.6,0,1.2,0,1.9
	c0,0.6-0.1,1.2-0.2,1.9c-0.1,0.5-0.2,1-0.3,1.6s-0.3,1.1-0.4,1.7s-0.3,1.1-0.6,1.6c-0.2,0.5-0.5,1-0.8,1.3c-0.6,0.6-1.4,1.1-2.3,1.2
	c-0.9,0.2-1.8,0.2-2.7,0s-1.7-0.5-2.5-1.1C53.7,103.1,53.1,102.5,52.8,101.7z"/>
<path id="XMLID_2_" class="st2" d="M761.4,101.7c-0.5-1.1-0.7-2.3-0.8-3.7c-0.1-1.4-0.1-2.8,0.1-4.2c0.1-1.4,0.2-2.7,0.4-3.9
	c0.1-1.2,0.2-2.2,0.1-2.9c-0.1-2.2-0.5-4.3-1.2-6.4c-0.7-2-1.3-4.1-1.8-6.3c-0.2-0.8-0.3-1.6-0.4-2.4c-0.1-0.8,0-1.6,0.1-2.4
	c0.1-0.8,0.4-1.5,0.8-2.2c0.4-0.7,1-1.3,1.7-1.8c1-0.7,2-1,3-1c1,0,1.9,0.3,2.8,0.8c0.8,0.5,1.6,1.1,2.2,1.9c0.6,0.8,1,1.6,1.2,2.5
	c0.2,1,0.3,2,0.2,3.1c-0.1,1.1-0.3,2.2-0.5,3.3c-0.2,1.1-0.5,2.2-0.8,3.2c-0.3,1.1-0.5,2.1-0.6,3.1c-0.2,1.3-0.4,2.6-0.6,4
	c-0.3,1.4-0.3,2.7-0.2,4c0.1,1.3,0.4,2,0.8,2.1c0.4,0.1,0.8-0.4,1.4-1.6c0.4-0.9,0.8-2,1.1-3.1c0.3-1.1,0.5-2.3,0.6-3.4
	c0.2-1.2,0.3-2.3,0.4-3.5c0.1-1.2,0.2-2.2,0.3-3.3c0.1-0.8,0.2-1.7,0.3-2.4c0.1-0.8,0.3-1.5,0.5-2.2c0.2-0.7,0.6-1.3,1.1-1.9
	s1.2-1.1,2.1-1.5c0.9-0.4,1.8-0.6,2.6-0.4c0.8,0.2,1.5,0.6,2,1.1c0.6,0.5,1,1.2,1.4,1.9c0.4,0.7,0.6,1.4,0.7,2c0,0.1,0.1,0.4,0.2,1
	c0.1,0.6,0.2,1.2,0.4,2s0.3,1.5,0.6,2.4c0.2,0.8,0.5,1.6,0.7,2.2c0.3,0.6,0.5,1.1,0.8,1.4c0.3,0.3,0.6,0.3,1,0.1
	c0.3-0.2,0.4-0.5,0.4-1c0-0.5-0.1-0.9-0.2-1.5c-0.1-0.5-0.2-1-0.4-1.5c-0.1-0.5-0.2-0.8-0.3-1c-0.3-1.4-0.4-2.7-0.5-4.1
	c0-1.4,0.1-2.7,0.5-4c0.3-0.9,0.7-1.8,1.3-2.6c0.6-0.8,1.4-1.4,2.2-1.9c0.8-0.4,1.7-0.6,2.7-0.5c0.9,0.1,1.9,0.5,2.8,1.3
	c0.6,0.6,1.1,1.3,1.4,2.1c0.3,0.8,0.5,1.7,0.6,2.7c0.1,0.9,0,1.9-0.1,2.8c-0.1,0.9-0.3,1.7-0.5,2.3c-0.4,1.3-0.9,2.4-1.5,3.5
	c-0.6,1.1-1.1,2.2-1.6,3.2c-0.5,1.1-0.8,2.2-1.1,3.3c-0.3,1.1-0.3,2.4-0.2,3.7c0.1,0.8,0.2,1.6,0.4,2.4c0.2,0.8,0.4,1.6,0.5,2.4
	c0.1,0.8,0.2,1.6,0.2,2.4c0,0.8-0.1,1.6-0.3,2.4c-0.2,0.8-0.7,1.5-1.3,2.2c-0.6,0.7-1.4,1.3-2.2,1.7s-1.7,0.6-2.6,0.6
	c-0.9,0-1.8-0.3-2.5-1c-0.7-0.6-1.3-1.5-1.7-2.6c-0.4-1.1-0.7-2.2-0.9-3.5c-0.2-1.2-0.4-2.4-0.5-3.6c-0.1-1.2-0.3-2.2-0.6-3.1
	c-0.1-0.4-0.3-0.8-0.5-1.3s-0.4-1-0.7-1.5c-0.3-0.5-0.6-1-0.9-1.4c-0.3-0.4-0.7-0.7-1.1-0.9c-0.3,0.1-0.6,0.3-0.9,0.7
	s-0.7,0.8-1,1.3c-0.3,0.5-0.6,0.9-0.8,1.4c-0.2,0.4-0.4,0.8-0.4,1c-0.2,0.6-0.3,1.2-0.3,1.8c-0.1,0.6-0.1,1.2-0.1,1.8
	c0,0.6,0,1.2,0,1.9c0,0.6-0.1,1.2-0.2,1.9c-0.1,0.5-0.2,1-0.3,1.6c-0.1,0.6-0.3,1.1-0.4,1.7s-0.3,1.1-0.6,1.6
	c-0.2,0.5-0.5,1-0.8,1.3c-0.6,0.6-1.4,1.1-2.3,1.2s-1.8,0.2-2.7,0s-1.7-0.5-2.5-1.1C762.3,103.1,761.8,102.5,761.4,101.7z"/>
</svg>
