0
SECTION
2
HEADER
9
$INSUNITS
70
4
9
$ACADVER
1
AC1014
9
$HANDSEED
5
FFFF
0
ENDSEC
0
SECTION
2
TABLES
0
TABLE
2
VPORT
5
8
100
AcDbSymbolTable
0
ENDTAB
0
TABLE
2
LTYPE
5
5
100
AcDbSymbolTable
0
LTYPE
5
14
100
AcDbSymbolTableRecord
100
AcDbLinetypeTableRecord
2
BYBLOCK
70
0
0
LTYPE
5
15
100
AcDbSymbolTableRecord
100
AcDbLinetypeTableRecord
2
BYLAYER
70
0
0
ENDTAB
0
TABLE
2
LAYER
5
2
100
AcDbSymbolTable
70
2
0
LAYER
5
50
100
AcDbSymbolTableRecord
100
AcDbLayerTableRecord
2
0
70
0
6
CONTINUOUS
0
ENDTAB
0
TABLE
2
STYLE
5
3
100
AcDbSymbolTable
70
1
0
STYLE
5
11
100
AcDbSymbolTableRecord
100
AcDbTextStyleTableRecord
2
STANDARD
70
0
0
ENDTAB
0
TABLE
2
VIEW
5
6
100
AcDbSymbolTable
70
0
0
ENDTAB
0
TABLE
2
UCS
5
7
100
AcDbSymbolTable
70
0
0
ENDTAB
0
TABLE
2
APPID
5
9
100
AcDbSymbolTable
70
2
0
APPID
5
12
100
AcDbSymbolTableRecord
100
AcDbRegAppTableRecord
2
ACAD
70
0
0
ENDTAB
0
TABLE
2
DIMSTYLE
5
A
100
AcDbSymbolTable
70
1
0
ENDTAB
0
TABLE
2
BLOCK_RECORD
5
1
100
AcDbSymbolTable
70
1
0
BLOCK_RECORD
5
1F
100
AcDbSymbolTableRecord
100
AcDbBlockTableRecord
2
*MODEL_SPACE
0
BLOCK_RECORD
5
1B
100
AcDbSymbolTableRecord
100
AcDbBlockTableRecord
2
*PAPER_SPACE
0
ENDTAB
0
ENDSEC
0
SECTION
2
BLOCKS
0
BLOCK
5
20
100
AcDbEntity
100
AcDbBlockBegin
2
*MODEL_SPACE
0
ENDBLK
5
21
100
AcDbEntity
100
AcDbBlockEnd
0
BLOCK
5
1C
100
AcDbEntity
100
AcDbBlockBegin
2
*PAPER_SPACE
0
ENDBLK
5
1D
100
AcDbEntity
100
AcDbBlockEnd
0
ENDSEC
0
SECTION
2
ENTITIES
0
LWPOLYLINE
5
100
100
AcDbEntity
8
0
100
AcDbPolyline
90
10
70
1
43
0.0
10
-110.26561293947449
20
-116.96094835767475
10
99.734387060525478
20
-116.96094835767475
10
99.734387060525506
20
-84.789375482420922
42
0.41421356237309509
10
114.73438706052551
20
-69.789375482420922
10
114.73438706052551
20
70.210624517579078
42
0.41421356237309509
10
99.734387060525506
20
85.210624517579078
10
-110.26561293947449
20
85.210624517579106
42
0.41421356237309509
10
-125.26561293947447
20
70.210624517579106
10
-125.26561293947449
20
-69.789375482420922
42
0.41421356237309542
10
-110.26561293947449
20
-84.789375482420922
0
CIRCLE
5
101
100
AcDbEntity
8
0
100
AcDbCircle
10
-103.91561293947446
20
-29.789375482420922
30
3.3265624964428531e-30
40
1.6659999999999975
210
0
220
-0
230
1
0
CIRCLE
5
102
100
AcDbEntity
8
0
100
AcDbCircle
10
-103.91561293947446
20
-44.789375482420937
30
3.3881922546632447e-30
40
1.6659999999999975
210
0
220
-0
230
1
0
CIRCLE
5
103
100
AcDbEntity
8
0
100
AcDbCircle
10
93.384387060525484
20
-29.789375482420922
30
7.2708670225479122e-30
40
1.6659999999999975
210
0
220
-0
230
1
0
CIRCLE
5
104
100
AcDbEntity
8
0
100
AcDbCircle
10
93.384387060525484
20
-44.789375482420937
30
7.3324967807683037e-30
40
1.6659999999999975
210
0
220
-0
230
1
0
CIRCLE
5
105
100
AcDbEntity
8
0
100
AcDbCircle
10
-110.26561293947449
20
-69.789375482420937
30
7.2092372643275206e-30
40
8.7594999999999992
210
0
220
-0
230
1
0
CIRCLE
5
106
100
AcDbEntity
8
0
100
AcDbCircle
10
99.734387060525506
20
70.210624517579078
30
1.9090780573738479e-30
40
8.7594999999999992
210
0
220
-0
230
1
0
CIRCLE
5
107
100
AcDbEntity
8
0
100
AcDbCircle
10
-110.26561293947449
20
70.210624517579106
30
7.702275330090653e-30
40
8.7594999999999992
210
0
220
-0
230
1
0
CIRCLE
5
108
100
AcDbEntity
8
0
100
AcDbCircle
10
99.734387060525506
20
-69.789375482420922
30
1.0462614422883661e-30
40
8.7594999999999992
210
0
220
-0
230
1
0
LWPOLYLINE
5
109
100
AcDbEntity
8
0
100
AcDbPolyline
90
8
70
1
43
0.0
10
-92.565612939474633
20
-54.789375482420922
10
-92.565612939474647
20
-9.7893754824209225
10
82.034387060525674
20
-9.7893754824209189
10
82.03438706052566
20
-54.789375482420922
10
104.73438706052569
20
-54.78937548242093
10
104.73438706052559
20
35.21062451757907
10
-115.26561293947483
20
35.210624517579078
10
-115.26561293947466
20
-54.789375482420922
0
CIRCLE
5
110
100
AcDbEntity
8
0
100
AcDbCircle
10
99.734387060525734
20
70.21062451757912
30
4.2368035309974265e-16
40
8.7595000000000152
210
-1.0833355937178093e-34
220
5.5357565899784417e-52
230
1
0
CIRCLE
5
111
100
AcDbEntity
8
0
100
AcDbCircle
10
-110.26561293947469
20
70.21062451757912
30
-1.3143115921277449e-16
40
8.7595000000000152
210
-1.0833355937178093e-34
220
5.5357565899784417e-52
230
1
0
CIRCLE
5
112
100
AcDbEntity
8
0
100
AcDbCircle
10
99.734387060525734
20
-69.789375482420937
30
1.8808480729202607e-15
40
8.7595000000000152
210
-1.0833355937178093e-34
220
5.5357565899784417e-52
230
1
0
CIRCLE
5
113
100
AcDbEntity
8
0
100
AcDbCircle
10
-110.26561293947469
20
-69.789375482420937
30
1.3257365606077435e-15
40
8.7595000000000152
210
-1.0833355937178093e-34
220
5.5357565899784417e-52
230
1
0
LWPOLYLINE
5
114
100
AcDbEntity
8
0
100
AcDbPolyline
90
10
70
1
43
0.0
10
-110.26561293947469
20
-81.960948357674752
10
-110.26561293947469
20
-84.789375482420979
42
-0.41421356237309542
10
-125.26561293947474
20
-69.789375482420922
10
-125.26561293947466
20
70.210624517579106
42
-0.41421356237309542
10
-110.26561293947469
20
85.210624517579078
10
99.734387060525734
20
85.210624517579149
42
-0.41421356237309576
10
114.73438706052576
20
70.210624517579078
10
114.73438706052571
20
-69.789375482420922
42
-0.41421356237309542
10
99.734387060525734
20
-84.789375482420922
10
99.734387060525691
20
-81.960948357674752
0
LWPOLYLINE
5
115
100
AcDbEntity
8
0
100
AcDbPolyline
90
4
70
1
43
0.0
10
-82.565612939474548
20
-14.789375482420919
10
-82.565612939474534
20
-74.789375482420922
10
72.034387060525574
20
-74.789375482420922
10
72.034387060525631
20
-14.789375482420921
0
LINE
5
116
100
AcDbEntity
8
0
100
AcDbLine
10
134.73438706052576
20
-69.789375482420922
30
1.8808480729202599e-15
11
-145.26561293947475
21
-69.789375482420922
31
-1.244944142102303e-15
0
LINE
5
117
100
AcDbEntity
8
0
100
AcDbLine
10
-145.26561293947475
20
-69.789375482420922
30
-1.244944142102303e-15
11
-145.26561293947475
21
-9.7893754824209189
31
-1.2449441421023028e-15
0
LINE
5
118
100
AcDbEntity
8
0
100
AcDbLine
10
-145.26561293947475
20
-9.7893754824209189
30
-1.2449441421023028e-15
11
134.73438706052576
21
-9.7893754824209189
31
-1.244944142102303e-15
0
LINE
5
119
100
AcDbEntity
8
0
100
AcDbLine
10
134.73438706052576
20
-9.7893754824209189
30
-1.244944142102303e-15
11
134.73438706052576
21
-69.789375482420922
31
1.8808480729202599e-15
0
LINE
5
120
100
AcDbEntity
8
0
100
AcDbLine
10
134.73438706052576
20
-9.7893754824209189
30
-1.244944142102303e-15
11
104.73438706052559
21
-9.7893754824209189
31
0
0
LINE
5
121
100
AcDbEntity
8
0
100
AcDbLine
10
104.73438706052559
20
-9.7893754824209189
30
0
11
104.73438706052559
21
85.210624517579078
31
0
0
LINE
5
122
100
AcDbEntity
8
0
100
AcDbLine
10
104.73438706052559
20
85.210624517579078
30
0
11
134.73438706052576
21
85.210624517579078
31
0
0
LINE
5
123
100
AcDbEntity
8
0
100
AcDbLine
10
134.73438706052576
20
85.210624517579078
30
0
11
134.73438706052576
21
-9.7893754824209189
31
-1.244944142102303e-15
0
LINE
5
124
100
AcDbEntity
8
0
100
AcDbLine
10
-145.26561293947475
20
-9.7893754824209189
30
-1.2449441421023028e-15
11
-115.26561293947483
21
-9.7893754824209189
31
0
0
LINE
5
125
100
AcDbEntity
8
0
100
AcDbLine
10
-115.26561293947483
20
-9.7893754824209189
30
0
11
-115.26561293947483
21
85.210624517579106
31
0
0
LINE
5
126
100
AcDbEntity
8
0
100
AcDbLine
10
-115.26561293947483
20
85.210624517579106
30
0
11
-145.26561293947475
21
85.210624517579106
31
0
0
LINE
5
127
100
AcDbEntity
8
0
100
AcDbLine
10
-145.26561293947475
20
85.210624517579106
30
0
11
-145.26561293947475
21
-9.7893754824209189
31
-1.2449441421023028e-15
0
ENDSEC
0
SECTION
2
OBJECTS
0
DICTIONARY
5
C
100
AcDbDictionary
3
ACAD_GROUP
350
D
3
ACAD_MLINESTYLE
350
17
0
DICTIONARY
5
D
100
AcDbDictionary
0
DICTIONARY
5
1A
330
C
100
AcDbDictionary
0
DICTIONARY
5
17
100
AcDbDictionary
0
ENDSEC
0
EOF
